<svg xmlns="http://www.w3.org/2000/svg" width="140.522" height="141" viewBox="0 0 140.522 141">
  <g id="face_id" transform="translate(-45.67 -40.758)">
    <path id="Path_2821" data-name="Path 2821" d="M186.192,111.255a70.368,70.368,0,0,1-63.934,70.217c-1.835.171-3.686.259-5.562.279-.245.007-.49.007-.735.007h-.034c-.252,0-.51,0-.762-.007-1.856-.013-3.692-.109-5.508-.273a69.757,69.757,0,0,1-37.564-15.12,70.4,70.4,0,1,1,114.1-55.1Z" fill="#166adb"/>
    <g id="Group_284" data-name="Group 284" transform="translate(76.786 66.684)">
      <path id="Path_2822" data-name="Path 2822" d="M132.8,196.791v33.482c-1.658-.012-3.3-.1-4.919-.243a62.4,62.4,0,0,1-33.543-13.456v-1.488a7.063,7.063,0,0,1,4.609-6.619l17.755-6.576,6.6-2.089Z" transform="translate(-94.342 -122.964)" fill="#bae1ff"/>
      <path id="Path_2823" data-name="Path 2823" d="M195.1,215.087v1.494a62.427,62.427,0,0,1-33.489,13.444c-1.639.151-3.291.231-4.967.249V196.791l9.545,3.024,6.552,2.077,17.755,6.576A7.058,7.058,0,0,1,195.1,215.087Z" transform="translate(-116.813 -122.964)" fill="#bae1ff"/>
      <rect id="Rectangle_46" data-name="Rectangle 46" width="20.405" height="20.405" transform="translate(28.967 58.524)" fill="#de9c73"/>
      <path id="Path_2824" data-name="Path 2824" d="M119.992,130.556h5.114v12.3h-3.419a2.368,2.368,0,0,1-2.31-1.85l-1.7-7.56A2.368,2.368,0,0,1,119.992,130.556Z" transform="translate(-102.739 -99.073)" fill="#e8b799"/>
      <path id="Path_2825" data-name="Path 2825" d="M141.884,87.212l-24.261,13.241,7.046,35.843c.789,4.014,3.96,7.986,8.09,11.153a9.515,9.515,0,0,0,5.8,1.927h7.1a9.7,9.7,0,0,0,6.184-2.227c3.635-3.007,6.507-7.028,7.259-10.853l8.409-42.775Z" transform="translate(-102.739 -83.439)" fill="#e8b799"/>
      <path id="Path_2826" data-name="Path 2826" d="M186.93,130.556h-5.114v12.3h3.418a2.369,2.369,0,0,0,2.311-1.85l1.7-7.56A2.368,2.368,0,0,0,186.93,130.556Z" transform="translate(-125.894 -99.073)" fill="#e8b799"/>
      <path id="Path_2827" data-name="Path 2827" d="M116.67,99.388l4.545,23.118,1.98-1.366a3.455,3.455,0,0,0,1.475-3.195l-2.631-25.8-2.645,1.353a5.254,5.254,0,0,0-2.764,5.692Z" transform="translate(-102.345 -85.218)" fill="#54472d"/>
      <path id="Path_2828" data-name="Path 2828" d="M189.834,99.388l-4.545,23.118-1.98-1.366a3.455,3.455,0,0,1-1.475-3.195l2.631-25.8,2.645,1.353a5.254,5.254,0,0,1,2.764,5.692Z" transform="translate(-125.894 -85.218)" fill="#54472d"/>
      <path id="Rectangle_47" data-name="Rectangle 47" d="M7.356,0H51.241a0,0,0,0,1,0,0V0A17.028,17.028,0,0,1,34.213,17.028H0a0,0,0,0,1,0,0V7.356A7.356,7.356,0,0,1,7.356,0Z" transform="translate(18.239)" fill="#54472d"/>
      <ellipse id="Ellipse_48" data-name="Ellipse 48" cx="3.629" cy="6.487" rx="3.629" ry="6.487" transform="translate(16.223 12.248)" fill="#54472d"/>
      <path id="Path_2829" data-name="Path 2829" d="M187.4,106.957c0,3.583-1.624,6.487-3.629,6.487s-3.629-2.9-3.629-6.487,1.624-6.488,3.629-6.488S187.4,103.373,187.4,106.957Z" transform="translate(-125.289 -88.221)" fill="#54472d"/>
      <path id="Path_2830" data-name="Path 2830" d="M152.439,196.791V230.28h-.031c-.224,0-.455,0-.68-.006-1.658-.012-3.3-.1-4.919-.243l3.892-23.681-1.651-2.229-1.543-2.083.14-.146,4.081-4.348.261-.279Z" transform="translate(-113.267 -122.964)" fill="#99d2ff"/>
      <path id="Path_2831" data-name="Path 2831" d="M161.238,230.025c-1.639.151-3.291.231-4.967.249-.219.006-.437.006-.656.006V196.791l.413.437.243.261,4.135,4.4.139.146-1.573,2.119-1.627,2.192Z" transform="translate(-116.443 -122.964)" fill="#99d2ff"/>
      <path id="Path_2832" data-name="Path 2832" d="M129.328,199.014l6.6-10.2,10.859,5.1-6.142,11.132Z" transform="translate(-106.961 -120.086)" fill="#d6edff"/>
      <path id="Path_2833" data-name="Path 2833" d="M171.965,199.014l-6.6-10.2-10.859,5.1,6.142,11.132Z" transform="translate(-116.043 -120.086)" fill="#d6edff"/>
    </g>
    <path id="Path_2834" data-name="Path 2834" d="M100.061,141.375H96.15v29.874h29.385v-3.91H100.061ZM96.15,93.9v28.877h3.911V97.816h25.474V93.9Zm73.434,73.434H144.128v3.91h29.366V141.375h-3.91ZM144.128,93.9v3.911h25.456v24.966h3.91V93.9Z" transform="translate(-18.208 -19.17)" fill="#fff"/>
    <path id="Path_2835" data-name="Path 2835" d="M137.053,120.76a1.4,1.4,0,1,1-1.4-1.4A1.4,1.4,0,0,1,137.053,120.76Z" transform="translate(-31.954 -28.353)" fill="#fff"/>
    <path id="Path_2836" data-name="Path 2836" d="M156.713,127.586a1.4,1.4,0,1,1-1.4-1.4A1.4,1.4,0,0,1,156.713,127.586Z" transform="translate(-39.046 -30.815)" fill="#fff"/>
    <circle id="Ellipse_49" data-name="Ellipse 49" cx="1.396" cy="1.396" r="1.396" transform="translate(99.515 106.377)" fill="#fff"/>
    <path id="Path_2837" data-name="Path 2837" d="M151.075,146.978a1.4,1.4,0,1,1-1.4-1.4A1.4,1.4,0,0,1,151.075,146.978Z" transform="translate(-37.012 -37.81)" fill="#fff"/>
    <circle id="Ellipse_50" data-name="Ellipse 50" cx="1.396" cy="1.396" r="1.396" transform="translate(108.125 125.114)" fill="#fff"/>
    <path id="Path_2838" data-name="Path 2838" d="M168.288,174.1a1.4,1.4,0,1,1-1.4-1.4A1.4,1.4,0,0,1,168.288,174.1Z" transform="translate(-43.221 -47.594)" fill="#fff"/>
    <path id="Path_2839" data-name="Path 2839" d="M157.249,163.228a1.4,1.4,0,1,1-1.4-1.4A1.4,1.4,0,0,1,157.249,163.228Z" transform="translate(-39.239 -43.671)" fill="#fff"/>
    <path id="Path_2840" data-name="Path 2840" d="M134.87,121.547l12.569,4.364-3.6,12.4,3.947,10.389-7.093,6.953-8.61-18.737,2.791-15.366,8.965,16.762" transform="translate(-31.167 -29.14)" fill="none" stroke="#fff" stroke-width="1"/>
    <path id="Path_2841" data-name="Path 2841" d="M174.411,120.76a1.4,1.4,0,1,0,1.4-1.4A1.4,1.4,0,0,0,174.411,120.76Z" transform="translate(-46.436 -28.353)" fill="#fff"/>
    <path id="Path_2842" data-name="Path 2842" d="M178.777,144.795a1.4,1.4,0,1,0,1.4-1.4A1.4,1.4,0,0,0,178.777,144.795Z" transform="translate(-48.011 -37.022)" fill="#fff"/>
    <circle id="Ellipse_51" data-name="Ellipse 51" cx="1.396" cy="1.396" r="1.396" transform="translate(119.01 107.772)" fill="#fff"/>
    <path id="Path_2843" data-name="Path 2843" d="M169.31,121.547l2.791,15.366-8.61,18.737L156.4,148.7l3.947-10.389-3.6-12.4,12.569-4.364-8.965,16.762" transform="translate(-39.939 -29.14)" fill="none" stroke="#fff" stroke-width="1"/>
  </g>
</svg>
