<svg xmlns="http://www.w3.org/2000/svg" width="140.522" height="141" viewBox="0 0 140.522 141">
  <g id="finger_id" transform="translate(-45.67 -40.758)">
    <path id="Path_2821" data-name="Path 2821" d="M186.192,111.255a70.368,70.368,0,0,1-63.934,70.217c-1.835.171-3.686.259-5.562.279-.245.007-.49.007-.735.007h-.034c-.252,0-.51,0-.762-.007-1.856-.013-3.692-.109-5.508-.273a69.757,69.757,0,0,1-37.564-15.12,70.4,70.4,0,1,1,114.1-55.1Z" fill="#166adb"/>
    <path id="Path_2834" data-name="Path 2834" d="M100.061,141.375H96.15v29.874h29.385v-3.91H100.061ZM96.15,93.9v28.877h3.911V97.816h25.474V93.9Zm73.434,73.434H144.128v3.91h29.366V141.375h-3.91ZM144.128,93.9v3.911h25.456v24.966h3.91V93.9Z" transform="translate(-18.208 -19.17)" fill="#fff"/>
    <g id="Group_286" data-name="Group 286" transform="translate(-204.404 -154.337)">
      <path id="Path_2844" data-name="Path 2844" d="M295.347,354.46a.845.845,0,0,1,.845.846v.059a24.147,24.147,0,0,0,37.726,19.964.845.845,0,1,1,.952,1.4,25.837,25.837,0,0,1-40.369-21.36v-.059A.845.845,0,0,1,295.347,354.46Z" transform="translate(0 -81.373)" fill="#bae1ff"/>
      <path id="Path_2845" data-name="Path 2845" d="M430.253,284.006V271.512a24.206,24.206,0,0,0-10.173-19.694.845.845,0,1,1,.979-1.378,25.9,25.9,0,0,1,10.884,21.072v12.494a25.822,25.822,0,0,1-6.322,16.933.845.845,0,0,1-1.276-1.109A24.13,24.13,0,0,0,430.253,284.006Z" transform="translate(-85.774 -10.015)" fill="#bae1ff"/>
      <path id="Path_2846" data-name="Path 2846" d="M320.336,235.663A25.74,25.74,0,0,1,329.4,237.3a.845.845,0,1,1-.594,1.583A24.159,24.159,0,0,0,296.192,261.5v5.973a.845.845,0,1,1-1.69,0V261.5A25.863,25.863,0,0,1,320.336,235.663Z" fill="#bae1ff"/>
      <path id="Path_2847" data-name="Path 2847" d="M310.366,272.364a20.836,20.836,0,0,1,41.673,0v4.45a.845.845,0,0,1-1.691,0v-4.45a19.146,19.146,0,1,0-38.291,0v.045a.845.845,0,1,1-1.691,0Z" transform="translate(-10.866 -10.867)" fill="#bae1ff"/>
      <path id="Path_2848" data-name="Path 2848" d="M351.193,345a.845.845,0,0,1,.846.845v.022a20.836,20.836,0,1,1-41.673,0v-4.427a.845.845,0,0,1,1.691,0v4.427a19.146,19.146,0,1,0,38.291,0v-.022A.845.845,0,0,1,351.193,345Z" transform="translate(-10.866 -71.874)" fill="#bae1ff"/>
      <path id="Path_2849" data-name="Path 2849" d="M327.076,290.187a.845.845,0,0,1-.846-.845v-6.112a15.839,15.839,0,0,1,31.678,0v.017a.838.838,0,0,1-.846.837.853.853,0,0,1-.845-.854,14.148,14.148,0,0,0-28.3,0v6.112A.845.845,0,0,1,327.076,290.187Z" transform="translate(-21.733 -21.734)" fill="#bae1ff"/>
      <path id="Path_2850" data-name="Path 2850" d="M357.908,342.167a15.839,15.839,0,0,1-31.678,0v-.034a.845.845,0,1,1,1.691,0v.034a14.148,14.148,0,1,0,28.3,0v-6.128a.845.845,0,0,1,1.691,0Z" transform="translate(-21.733 -68.176)" fill="#bae1ff"/>
      <path id="Path_2851" data-name="Path 2851" d="M357.818,284.794a10.8,10.8,0,0,1,5.958,9.682v12.494a10.841,10.841,0,1,1-21.682,0V294.476a10.845,10.845,0,0,1,8.814-10.652.846.846,0,0,1,.315,1.661,9.152,9.152,0,0,0-7.438,8.99v12.494a9.15,9.15,0,1,0,18.3,0V294.476a9.113,9.113,0,0,0-5.03-8.173.845.845,0,1,1,.762-1.509Z" transform="translate(-32.6 -32.979)" fill="#bae1ff"/>
      <path id="Path_2852" data-name="Path 2852" d="M358.805,311.857a.845.845,0,0,1-.845-.845v-6.048a5.843,5.843,0,1,1,11.686,0v12.494a5.843,5.843,0,1,1-11.686,0v-.02a.837.837,0,0,1,.845-.835.854.854,0,0,1,.846.856,4.152,4.152,0,1,0,8.3,0V304.964a4.152,4.152,0,1,0-8.3,0v6.048A.845.845,0,0,1,358.805,311.857Z" transform="translate(-43.467 -43.467)" fill="#bae1ff"/>
      <path id="Path_2853" data-name="Path 2853" d="M375.515,315.831v12.494a.845.845,0,1,1-1.691,0V315.831a.845.845,0,0,1,1.691,0Z" transform="translate(-54.333 -54.334)" fill="#bae1ff"/>
    </g>
  </g>
</svg>
