<svg xmlns="http://www.w3.org/2000/svg" width="29.558" height="21.739" viewBox="0 0 29.558 21.739">
  <g id="Group_272" data-name="Group 272" transform="translate(-291.466 -536.5)">
    <path id="Path_2819" data-name="Path 2819" d="M232.539,386.682A5.186,5.186,0,0,1,236.362,385H249.2a4.321,4.321,0,0,1,4.321,4.321v12.1a4.321,4.321,0,0,1-4.321,4.321H236.725a5.186,5.186,0,0,1-3.743-1.6l-7.566-7.895a1.3,1.3,0,0,1-.02-1.772Z" transform="translate(67 152)" fill="none" stroke="#166adb" stroke-width="1" fill-rule="evenodd"/>
    <path id="Path_2820" data-name="Path 2820" d="M244.247,395.025l-3.315-3.315a.864.864,0,0,0-1.222,1.222l3.315,3.315-3.315,3.315a.864.864,0,0,0,1.222,1.222l3.315-3.315,3.315,3.315a.864.864,0,0,0,1.222-1.222l-3.315-3.315,3.315-3.315a.864.864,0,0,0-1.222-1.222Z" transform="translate(65.043 151.123)" fill="#166adb" fill-rule="evenodd"/>
  </g>
</svg>
