<svg xmlns="http://www.w3.org/2000/svg" width="30" height="30" viewBox="0 0 30 30">
  <g id="Group_276" data-name="Group 276" transform="translate(-79 -252)">
    <path id="familiar_face_and_zone_FILL0_wght400_GRAD0_opsz48" d="M17.034,27.875A10.558,10.558,0,0,1,9.3,24.722,10.472,10.472,0,0,1,6.125,17,10.585,10.585,0,0,1,9.3,9.244a10.5,10.5,0,0,1,7.739-3.187,10.5,10.5,0,0,1,7.739,3.188A10.585,10.585,0,0,1,27.943,17a10.472,10.472,0,0,1-3.17,7.722,10.558,10.558,0,0,1-7.739,3.153ZM17.1,25.83a8.38,8.38,0,0,0,6.17-2.574,8.5,8.5,0,0,0,2.557-6.222,7.288,7.288,0,0,0-.136-1.432,11.143,11.143,0,0,0-.409-1.466q-1.193.17-1.756.222t-.972.051a8.688,8.688,0,0,1-4.244-1.159,13.166,13.166,0,0,1-3.8-3.239,11.825,11.825,0,0,1-2.54,4.074,8.938,8.938,0,0,1-3.869,2.4,9.049,9.049,0,0,0,2.642,6.733A8.725,8.725,0,0,0,17.1,25.83ZM8.716,14a8.891,8.891,0,0,0,2.335-1.994A8.059,8.059,0,0,0,12.534,9.33a8.45,8.45,0,0,0-2.352,1.994A8.22,8.22,0,0,0,8.716,14Zm5.25,5.386a1.339,1.339,0,1,1,.972-.392A1.319,1.319,0,0,1,13.966,19.386Zm8.966-7.023q.443,0,.8-.034t.733-.1a8.235,8.235,0,0,0-3.17-3A8.788,8.788,0,0,0,17,8.1q-.273,0-.511.017a5.942,5.942,0,0,0-.614.085,8.533,8.533,0,0,0,3.051,3.051A7.8,7.8,0,0,0,22.932,12.364ZM20.068,19.42a1.4,1.4,0,1,1,0-2.8,1.292,1.292,0,0,1,.972.409,1.443,1.443,0,0,1,0,1.977A1.292,1.292,0,0,1,20.068,19.42ZM2,8.545v-4.5a1.962,1.962,0,0,1,.614-1.432A1.962,1.962,0,0,1,4.045,2h4.5V4.045h-4.5v4.5ZM8.545,32h-4.5a1.962,1.962,0,0,1-1.432-.614A1.962,1.962,0,0,1,2,29.955v-4.5H4.045v4.5h4.5Zm16.909,0V29.955h4.5v-4.5H32v4.5A2.1,2.1,0,0,1,29.955,32Zm4.5-23.455v-4.5h-4.5V2h4.5a1.962,1.962,0,0,1,1.432.614A1.962,1.962,0,0,1,32,4.045v4.5ZM15.875,8.2ZM12.534,9.33Z" transform="translate(77 250)" fill="#166adb"/>
  </g>
</svg>
