<svg xmlns="http://www.w3.org/2000/svg" width="30" height="30" viewBox="0 0 30 30">
  <g id="f_scan" transform="translate(-79 -252)">
    <path id="familiar_face_and_zone_FILL0_wght400_GRAD0_opsz48" d="M2,8.545v-4.5a1.962,1.962,0,0,1,.614-1.432A1.962,1.962,0,0,1,4.045,2h4.5V4.045h-4.5v4.5ZM8.545,32h-4.5a1.962,1.962,0,0,1-1.432-.614A1.962,1.962,0,0,1,2,29.955v-4.5H4.045v4.5h4.5Zm16.909,0V29.955h4.5v-4.5H32v4.5A2.1,2.1,0,0,1,29.955,32Zm4.5-23.455v-4.5h-4.5V2h4.5a1.962,1.962,0,0,1,1.432.614A1.962,1.962,0,0,1,32,4.045v4.5Z" transform="translate(77 250)" fill="#166adb"/>
    <path id="fingerprint_FILL0_wght400_GRAD0_opsz48" d="M15.748,4a13.86,13.86,0,0,1,3.451.433,15.693,15.693,0,0,1,3.234,1.218.206.206,0,0,1,.149.162A.27.27,0,0,1,22.542,6a.433.433,0,0,1-.149.135.256.256,0,0,1-.23,0,14.053,14.053,0,0,0-3.1-1.164,13.8,13.8,0,0,0-6.591-.014A13,13,0,0,0,9.414,6.138a.234.234,0,0,1-.2.014A.391.391,0,0,1,9.09,6.03a.221.221,0,0,1-.054-.162.182.182,0,0,1,.081-.162,15.316,15.316,0,0,1,3.234-1.259A13.257,13.257,0,0,1,15.748,4Zm0,2.734a12.53,12.53,0,0,1,5.508,1.245,11.347,11.347,0,0,1,4.29,3.573.346.346,0,0,1,.068.217.307.307,0,0,1-.095.162.275.275,0,0,1-.2.081.3.3,0,0,1-.23-.135,10.6,10.6,0,0,0-4.073-3.41,11.994,11.994,0,0,0-5.264-1.191,11.627,11.627,0,0,0-5.224,1.2,11.116,11.116,0,0,0-4.06,3.4.444.444,0,0,1-.2.162.275.275,0,0,1-.2-.027.183.183,0,0,1-.108-.176A.508.508,0,0,1,6,11.606a11.388,11.388,0,0,1,4.249-3.6,12.225,12.225,0,0,1,5.494-1.272Zm0,5.332a6.13,6.13,0,0,1,4.29,1.651,5.294,5.294,0,0,1,1.8,4.06.239.239,0,0,1-.271.271.327.327,0,0,1-.217-.068.249.249,0,0,1-.081-.2A4.777,4.777,0,0,0,19.632,14.1a5.581,5.581,0,0,0-3.884-1.489A5.484,5.484,0,0,0,11.891,14.1a4.812,4.812,0,0,0-1.61,3.681,8.824,8.824,0,0,0,.8,3.925,13,13,0,0,0,2.368,3.248.249.249,0,0,1,.095.2.31.31,0,0,1-.095.176.343.343,0,0,1-.162.081.286.286,0,0,1-.244-.081A14.775,14.775,0,0,1,10.605,21.9a9.06,9.06,0,0,1-.893-4.128,5.331,5.331,0,0,1,1.773-4.06A6.034,6.034,0,0,1,15.748,12.066Zm-.027,5.413a.249.249,0,0,1,.2.081.327.327,0,0,1,.068.217A4.607,4.607,0,0,0,17.6,21.39a5.457,5.457,0,0,0,3.722,1.421q.217,0,.514-.027t.65-.081a.247.247,0,0,1,.217.041.333.333,0,0,1,.108.149.268.268,0,0,1-.014.189.232.232,0,0,1-.176.108,3.769,3.769,0,0,1-.853.149q-.365.014-.447.014A5.941,5.941,0,0,1,17.2,21.769a5.159,5.159,0,0,1-1.746-3.992.327.327,0,0,1,.068-.217A.249.249,0,0,1,15.721,17.479Zm.027-2.707a3.17,3.17,0,0,1,2.233.866,2.8,2.8,0,0,1,.934,2.138,2.22,2.22,0,0,0,.8,1.732,2.718,2.718,0,0,0,1.854.7,2.587,2.587,0,0,0,1.8-.7,2.253,2.253,0,0,0,.771-1.732A7.223,7.223,0,0,0,21.662,12.2a8.5,8.5,0,0,0-5.914-2.246A8.5,8.5,0,0,0,9.834,12.2a7.223,7.223,0,0,0-2.477,5.576,12.5,12.5,0,0,0,.149,1.692,11.85,11.85,0,0,0,.636,2.368.2.2,0,0,1,0,.2.591.591,0,0,1-.135.122.337.337,0,0,1-.23.027.244.244,0,0,1-.176-.162,15.275,15.275,0,0,1-.555-2.1,11.51,11.51,0,0,1-.2-2.152A7.873,7.873,0,0,1,9.5,11.809a8.86,8.86,0,0,1,6.252-2.477,8.994,8.994,0,0,1,6.32,2.436,7.854,7.854,0,0,1,2.639,6.009,2.79,2.79,0,0,1-.92,2.111,3.122,3.122,0,0,1-2.219.866,3.252,3.252,0,0,1-2.274-.866,2.753,2.753,0,0,1-.947-2.111,2.282,2.282,0,0,0-.771-1.759,2.62,2.62,0,0,0-1.827-.7,2.669,2.669,0,0,0-1.84.7,2.265,2.265,0,0,0-.785,1.759,6.73,6.73,0,0,0,1.705,4.7,9.13,9.13,0,0,0,4.249,2.639.332.332,0,0,1,.2.135.268.268,0,0,1,.014.189.232.232,0,0,1-.108.176.337.337,0,0,1-.217.014,8.918,8.918,0,0,1-4.588-2.8,7.427,7.427,0,0,1-1.8-5.048,2.8,2.8,0,0,1,.934-2.138,3.17,3.17,0,0,1,2.233-.866Z" transform="translate(77.717 252.833)" fill="#166adb"/>
  </g>
</svg>
