<svg xmlns="http://www.w3.org/2000/svg" xmlns:xlink="http://www.w3.org/1999/xlink" width="1024" height="1024" viewBox="0 0 1024 1024">
  <defs>
    <filter id="Ellipse_24" x="564.377" y="640.06" width="98.557" height="98.558" filterUnits="userSpaceOnUse">
      <feOffset dx="3" dy="6" input="SourceAlpha"/>
      <feGaussianBlur stdDeviation="10" result="blur"/>
      <feFlood flood-color="#f5d400" flood-opacity="0.2"/>
      <feComposite operator="in" in2="blur"/>
      <feComposite in="SourceGraphic"/>
    </filter>
    <filter id="Ellipse_25" x="618.357" y="640.06" width="98.557" height="98.558" filterUnits="userSpaceOnUse">
      <feOffset dx="3" dy="6" input="SourceAlpha"/>
      <feGaussianBlur stdDeviation="10" result="blur-2"/>
      <feFlood flood-color="#333276" flood-opacity="0.2"/>
      <feComposite operator="in" in2="blur-2"/>
      <feComposite in="SourceGraphic"/>
    </filter>
    <clipPath id="clip-App_icon_Foureground">
      <rect width="1024" height="1024"/>
    </clipPath>
  </defs>
  <g id="App_icon_Foureground" data-name="App icon –  Foureground" clip-path="url(#clip-App_icon_Foureground)">
    <g id="Group_2746" data-name="Group 2746" transform="translate(13.775 127.546)">
      <g id="Group_2742" data-name="Group 2742" transform="translate(77.225 233.454)">
        <path id="Path_1755" data-name="Path 1755" d="M105.859,186.617q-48.385,0-76.01-22.649T2.225,99.8q0-40.836,24.536-64.514T97.623,11.606q29.512,0,50.616,11.153T180.153,53.3q10.81,19.389,10.81,43.753v22.305H59.533q3.432,13.726,17.158,19.9t37.4,6.177a207.433,207.433,0,0,0,33.115-2.745,145.533,145.533,0,0,0,29.34-7.55V174.95q-12.7,5.147-31.742,8.407A230.451,230.451,0,0,1,105.859,186.617ZM134,81.61q-1.373-13.383-10.981-20.933T96.594,53.128q-16.472,0-26.08,7.721T59.533,81.61Zm74.122-28.139H330.285v48.042H208.121ZM478.187,186.617q-39.12,0-68.8-15.1a107.66,107.66,0,0,1-45.812-43.41q-16.128-28.311-16.129-66.4t16.129-66.4a108.73,108.73,0,0,1,45.812-43.581q29.683-15.271,68.8-15.271,25.737,0,45.983,5.147a126.9,126.9,0,0,1,37.4,16.129V15.381A97.767,97.767,0,0,0,527.43-2.12q-19.045-5.491-43.753-5.491-35.345,0-54.562,18.359T409.9,61.707q0,32.6,19.388,51.131t54.391,18.531q24.708,0,44.268-5.834A114.1,114.1,0,0,0,564.32,107v57.308Q531.72,186.617,478.187,186.617ZM588.341-58.4h58.337L716,90.189,785.658-58.4h57.994V181.47H787.031V61.021L729.723,181.47H702.27L645.306,61.021V181.47H588.341Z" transform="translate(-2.225 63.546)" fill="#fff"/>
      </g>
      <g id="Layer_2" data-name="Layer 2" transform="translate(708.696 514.783)">
        <g id="Layer_1" data-name="Layer 1" transform="translate(0 0)">
          <g id="Group_215" data-name="Group 215">
            <g id="Group_213" data-name="Group 213">
              <path id="Path_109" data-name="Path 109" d="M189.887,36.264v25.7H174.963a21.312,21.312,0,0,1-8.438-1.714,23.418,23.418,0,0,1-7.067-4.646,22.229,22.229,0,0,1-4.842-6.927,20.864,20.864,0,0,1,0-16.932,22.55,22.55,0,0,1,4.842-6.948,22.977,22.977,0,0,1,7.067-4.681,21.417,21.417,0,0,1,8.431-1.707H208.19V0H174.963a40.2,40.2,0,0,0-20.4,5.52,42.03,42.03,0,0,0-8.214,6.3A40.449,40.449,0,0,0,141.49,17.6a39.949,39.949,0,0,0-4.849-5.786,41.833,41.833,0,0,0-8.2-6.3A40.281,40.281,0,0,0,108.038,0H74.79V61.957H40.519a21.417,21.417,0,0,1-8.4-1.707A23.4,23.4,0,0,1,25.056,55.6a22.166,22.166,0,0,1-4.849-6.927,20.864,20.864,0,0,1,0-16.932,22.453,22.453,0,0,1,4.849-6.948,23.089,23.089,0,0,1,7.067-4.681,21.417,21.417,0,0,1,8.4-1.707H67.254V0H40.519a40.2,40.2,0,0,0-20.4,5.5,41.757,41.757,0,0,0-8.214,6.3,40.036,40.036,0,0,0-6.367,8.13,40.77,40.77,0,0,0-4.086,9.586,39.966,39.966,0,0,0,0,21.361,40.532,40.532,0,0,0,4.086,9.586A40.036,40.036,0,0,0,11.9,68.569a41.155,41.155,0,0,0,8.214,6.3,40.581,40.581,0,0,0,20.4,5.464h67.512a40.459,40.459,0,0,0,28.631-11.762,40,40,0,0,0,4.856-5.786,40,40,0,0,0,4.856,5.786,40.3,40.3,0,0,0,28.61,11.713h33.235V36.2ZM128.378,48.67a22.089,22.089,0,0,1-4.849,6.927,23.187,23.187,0,0,1-7.06,4.653,21.228,21.228,0,0,1-8.438,1.707H93.121V18.4h14.91a21.228,21.228,0,0,1,8.438,1.707,22.852,22.852,0,0,1,7.06,4.681,22.452,22.452,0,0,1,4.849,6.948,20.864,20.864,0,0,1,0,16.932" transform="translate(-0.002 0)" fill="rgba(255,255,255,0.59)"/>
            </g>
            <g id="Group_214" data-name="Group 214" transform="translate(22.192 94.61)">
              <path id="Path_110" data-name="Path 110" d="M35.06,137.792H31.89V135.63h8.788v2.162h-3.17v8.949H35.06Z" transform="translate(-31.771 -135.342)" fill="rgba(255,255,255,0.59)"/>
              <path id="Path_111" data-name="Path 111" d="M48,135.63h7.578v2.26H50.484v2.1H55.3v2.26H50.484v2.26h5.388v2.26H48.035Z" transform="translate(-36.609 -135.342)" fill="rgba(255,255,255,0.59)"/>
              <path id="Path_112" data-name="Path 112" d="M70.735,138.389a2.435,2.435,0,0,0-.889-.665,2.911,2.911,0,0,0-1.217-.238,3.05,3.05,0,0,0-2.295,1.015,3.344,3.344,0,0,0-.665,1.14,4.275,4.275,0,0,0,0,2.862,3.4,3.4,0,0,0,.665,1.127,2.892,2.892,0,0,0,.994.749,2.8,2.8,0,0,0,1.231.266,2.681,2.681,0,0,0,1.329-.315,2.638,2.638,0,0,0,.959-.868l2.043,1.518a4.3,4.3,0,0,1-1.791,1.462,5.548,5.548,0,0,1-2.232.469,6.683,6.683,0,0,1-2.4-.406,5.382,5.382,0,0,1-1.9-1.169,5.212,5.212,0,0,1-1.252-1.875,6.774,6.774,0,0,1,0-4.835,5.248,5.248,0,0,1,1.252-1.84,5.382,5.382,0,0,1,1.889-1.155,6.855,6.855,0,0,1,2.4-.413,6.745,6.745,0,0,1,.987.091,4.9,4.9,0,0,1,1,.273,4.418,4.418,0,0,1,.952.5,3.706,3.706,0,0,1,.819.77Z" transform="translate(-41.076 -135.219)" fill="rgba(255,255,255,0.59)"/>
              <path id="Path_113" data-name="Path 113" d="M80.77,135.63h2.449v4.142H87.97V135.63h2.449v11.111H87.97v-4.8H83.219v4.8H80.77Z" transform="translate(-46.451 -135.342)" fill="rgba(255,255,255,0.59)"/>
              <path id="Path_114" data-name="Path 114" d="M99.49,135.63h3.323l4.723,7.7h.007v-7.7h2.442v11.111h-3.142l-4.9-7.906h0v7.906H99.49Z" transform="translate(-52.073 -135.342)" fill="rgba(255,255,255,0.59)"/>
              <path id="Path_115" data-name="Path 115" d="M118.59,141.056a6.339,6.339,0,0,1,.441-2.414,5.274,5.274,0,0,1,1.252-1.847,5.6,5.6,0,0,1,1.9-1.168,7.326,7.326,0,0,1,4.8,0,5.6,5.6,0,0,1,1.9,1.168,5.355,5.355,0,0,1,1.245,1.847,6.7,6.7,0,0,1,0,4.835,5.425,5.425,0,0,1-1.245,1.847,5.6,5.6,0,0,1-1.9,1.168,7.241,7.241,0,0,1-4.8,0,5.6,5.6,0,0,1-1.9-1.168,5.34,5.34,0,0,1-1.252-1.847A6.345,6.345,0,0,1,118.59,141.056Zm2.54,0a4.152,4.152,0,0,0,.245,1.434,3.346,3.346,0,0,0,.7,1.134,3.268,3.268,0,0,0,1.092.749,3.974,3.974,0,0,0,2.841,0,3.267,3.267,0,0,0,1.092-.749,3.322,3.322,0,0,0,.7-1.134,4.275,4.275,0,0,0,0-2.862,3.247,3.247,0,0,0-.7-1.14,3.148,3.148,0,0,0-1.092-.742,3.9,3.9,0,0,0-2.841,0,3.148,3.148,0,0,0-1.092.742,3.373,3.373,0,0,0-.7,1.14,4.314,4.314,0,0,0-.245,1.4Z" transform="translate(-57.809 -135.22)" fill="rgba(255,255,255,0.59)"/>
              <path id="Path_116" data-name="Path 116" d="M139.917,135.63h2.456v8.858h4.534v2.26h-7Z" transform="translate(-64.212 -135.342)" fill="rgba(255,255,255,0.59)"/>
              <path id="Path_117" data-name="Path 117" d="M152.67,141.056a6.208,6.208,0,0,1,.441-2.414,5.351,5.351,0,0,1,1.245-1.847,5.6,5.6,0,0,1,1.9-1.169,7.326,7.326,0,0,1,4.8,0,5.687,5.687,0,0,1,1.9,1.169,5.354,5.354,0,0,1,1.245,1.847,6.773,6.773,0,0,1,0,4.835,5.424,5.424,0,0,1-1.245,1.847,5.69,5.69,0,0,1-1.9,1.168,7.24,7.24,0,0,1-4.8,0,5.6,5.6,0,0,1-1.9-1.168,5.424,5.424,0,0,1-1.245-1.861,6.244,6.244,0,0,1-.441-2.407Zm2.54,0a3.99,3.99,0,0,0,.245,1.434,3.225,3.225,0,0,0,1.784,1.882,3.975,3.975,0,0,0,2.841,0,3.266,3.266,0,0,0,1.091-.749,3.345,3.345,0,0,0,.7-1.133,4.359,4.359,0,0,0,0-2.862,3.373,3.373,0,0,0-.7-1.14,3.15,3.15,0,0,0-1.091-.742,3.9,3.9,0,0,0-2.841,0,3.19,3.19,0,0,0-1.084.742,3.3,3.3,0,0,0-.7,1.14A3.983,3.983,0,0,0,155.209,141.056Z" transform="translate(-68.043 -135.22)" fill="rgba(255,255,255,0.59)"/>
              <path id="Path_118" data-name="Path 118" d="M183.675,145.827a8.736,8.736,0,0,1-2.26.819,11.553,11.553,0,0,1-2.407.252,6.844,6.844,0,0,1-2.4-.413,5.38,5.38,0,0,1-1.9-1.168,5.232,5.232,0,0,1-1.245-1.84,6.715,6.715,0,0,1,0-4.842,5.231,5.231,0,0,1,1.245-1.84,5.477,5.477,0,0,1,1.9-1.169,6.682,6.682,0,0,1,2.4-.406,8.8,8.8,0,0,1,2.456.322,4.8,4.8,0,0,1,1.973,1.105l-1.728,1.917a3.338,3.338,0,0,0-1.127-.784,4.2,4.2,0,0,0-1.574-.266,3.678,3.678,0,0,0-1.4.266,3.163,3.163,0,0,0-1.784,1.889,4.275,4.275,0,0,0,0,2.862,3.129,3.129,0,0,0,.7,1.127,3.079,3.079,0,0,0,1.092.749,3.68,3.68,0,0,0,1.4.266,4.624,4.624,0,0,0,1.4-.175,5.308,5.308,0,0,0,.924-.371v-1.805H179.3v-2.267h4.352Z" transform="translate(-74.154 -135.219)" fill="rgba(255,255,255,0.59)"/>
              <path id="Path_119" data-name="Path 119" d="M195.118,141.994l-4.2-6.374h3.044l2.358,4.163,2.491-4.163h2.9l-4.2,6.374v4.744h-2.442Z" transform="translate(-79.531 -135.339)" fill="rgba(255,255,255,0.59)"/>
              <path id="Path_120" data-name="Path 120" d="M217.68,135.63h7.459v2.26h-5.01v2.26h4.632v2.26h-4.632v4.331H217.68Z" transform="translate(-87.568 -135.342)" fill="rgba(255,255,255,0.59)"/>
              <path id="Path_121" data-name="Path 121" d="M231.68,141.056a6.34,6.34,0,0,1,.441-2.414,5.275,5.275,0,0,1,1.252-1.847,5.6,5.6,0,0,1,1.9-1.168,7.347,7.347,0,0,1,4.807,0,5.6,5.6,0,0,1,1.9,1.168,5.261,5.261,0,0,1,1.245,1.847,6.7,6.7,0,0,1,0,4.835,5.323,5.323,0,0,1-1.245,1.847,5.6,5.6,0,0,1-1.9,1.169,7.263,7.263,0,0,1-4.807,0,5.6,5.6,0,0,1-1.9-1.169,5.337,5.337,0,0,1-1.252-1.847A6.375,6.375,0,0,1,231.68,141.056Zm2.54,0a4.151,4.151,0,0,0,.245,1.434,3.344,3.344,0,0,0,.7,1.133,3.266,3.266,0,0,0,1.091.749,3.973,3.973,0,0,0,2.841,0,3.264,3.264,0,0,0,1.091-.749,3.327,3.327,0,0,0,.7-1.133,4.275,4.275,0,0,0,0-2.862,3.244,3.244,0,0,0-.7-1.14,3.148,3.148,0,0,0-1.091-.742,3.9,3.9,0,0,0-2.841,0,3.15,3.15,0,0,0-1.091.741,3.305,3.305,0,0,0-.7,1.141A4.31,4.31,0,0,0,234.219,141.056Z" transform="translate(-91.772 -135.22)" fill="rgba(255,255,255,0.59)"/>
              <path id="Path_122" data-name="Path 122" d="M252.862,135.63h4.282a7,7,0,0,1,1.616.168,3.66,3.66,0,0,1,1.322.546,2.8,2.8,0,0,1,.916,1.035,3.615,3.615,0,0,1,.336,1.623,3.24,3.24,0,0,1-.616,1.994,2.73,2.73,0,0,1-1.784,1.043l2.8,4.695H258.8l-2.323-4.443h-1.21v4.443H252.82Zm2.449,4.6h2.141a2.1,2.1,0,0,0,.665-.147,1.181,1.181,0,0,0,.5-.371,1.14,1.14,0,0,0,.2-.7,1.189,1.189,0,0,0-.175-.665,1.233,1.233,0,0,0-.441-.385,2.1,2.1,0,0,0-.616-.182,5.176,5.176,0,0,0-.658-.042h-1.6Z" transform="translate(-98.121 -135.342)" fill="rgba(255,255,255,0.59)"/>
              <path id="Path_123" data-name="Path 123" d="M36.513,163.23h2.022l4.835,11.111H40.613l-.959-2.351H35.337l-.931,2.351H31.72Zm.938,3.233-1.336,3.456h2.715Z" transform="translate(-31.72 -143.631)" fill="rgba(255,255,255,0.59)"/>
              <path id="Path_124" data-name="Path 124" d="M60,163.23h4.142a10.112,10.112,0,0,1,1.458.105,3.906,3.906,0,0,1,1.306.405,2.518,2.518,0,0,1,.945.854,2.68,2.68,0,0,1,.364,1.462,2.344,2.344,0,0,1-.525,1.546,2.894,2.894,0,0,1-1.4.889h0a3.327,3.327,0,0,1,1,.308,2.7,2.7,0,0,1,.763.581,2.476,2.476,0,0,1,.5.825,2.912,2.912,0,0,1,.175,1.008,2.687,2.687,0,0,1-.378,1.462,2.937,2.937,0,0,1-.973.952,4.027,4.027,0,0,1-1.343.518,7.082,7.082,0,0,1-1.483.161H60Zm2.449,4.443H64.2a2.492,2.492,0,0,0,.56-.063,1.464,1.464,0,0,0,.5-.2,1.035,1.035,0,0,0,.483-.938.966.966,0,0,0-.14-.6,1.03,1.03,0,0,0-.378-.357,1.8,1.8,0,0,0-.539-.175,3.2,3.2,0,0,0-.581-.056H62.435Zm0,4.6h2.2a3.129,3.129,0,0,0,.574-.056,1.587,1.587,0,0,0,.525-.224,1.176,1.176,0,0,0,.539-1.022.994.994,0,0,0-.2-.637,1.287,1.287,0,0,0-.49-.371,2.571,2.571,0,0,0-.644-.168,4,4,0,0,0-.644-.049H62.428Z" transform="translate(-40.213 -143.631)" fill="rgba(255,255,255,0.59)"/>
              <path id="Path_125" data-name="Path 125" d="M76.33,163.23h7.543v2.26H78.779v2.1H83.6v2.26H78.779v2.267h5.388v2.253H76.33Z" transform="translate(-45.117 -143.631)" fill="rgba(255,255,255,0.59)"/>
              <path id="Path_126" data-name="Path 126" d="M93.72,165.4H90.55V163.23h8.788V165.4H96.169v8.942H93.72Z" transform="translate(-49.388 -143.631)" fill="rgba(255,255,255,0.59)"/>
              <path id="Path_127" data-name="Path 127" d="M108.28,165.4h-3.17V163.23H113.9V165.4h-3.17v8.942H108.28Z" transform="translate(-53.761 -143.631)" fill="rgba(255,255,255,0.59)"/>
              <path id="Path_128" data-name="Path 128" d="M121.26,163.23h7.55v2.26h-5.094v2.1h4.821v2.26h-4.821v2.267H129.1v2.253h-7.836Z" transform="translate(-58.611 -143.631)" fill="rgba(255,255,255,0.59)"/>
              <path id="Path_129" data-name="Path 129" d="M136.928,163.23h4.3a7.8,7.8,0,0,1,1.608.168,3.819,3.819,0,0,1,1.331.546,2.8,2.8,0,0,1,.91,1.043,3.5,3.5,0,0,1,.336,1.623,3.283,3.283,0,0,1-.609,1.994,2.8,2.8,0,0,1-1.791,1.042l2.8,4.695h-2.939l-2.323-4.443h-1.21v4.443H136.9Zm2.449,4.6h2.141a2.343,2.343,0,0,0,.665-.14,1.236,1.236,0,0,0,.5-.371,1.155,1.155,0,0,0,.2-.7,1.209,1.209,0,0,0-.175-.665,1.112,1.112,0,0,0-.441-.385,1.945,1.945,0,0,0-.616-.182,4.271,4.271,0,0,0-.7-.049h-1.6Z" transform="translate(-63.308 -143.631)" fill="rgba(255,255,255,0.59)"/>
              <path id="Path_130" data-name="Path 130" d="M166.615,165.821a1.779,1.779,0,0,0-.812-.56,2.837,2.837,0,0,0-.965-.175,2.492,2.492,0,0,0-.553.063,2.1,2.1,0,0,0-.532.2,1.155,1.155,0,0,0-.406.35.924.924,0,0,0-.161.539.9.9,0,0,0,.378.763,3.5,3.5,0,0,0,.952.462l1.231.371a5.223,5.223,0,0,1,1.231.539,2.921,2.921,0,0,1,.952.924,2.861,2.861,0,0,1,.378,1.553,3.6,3.6,0,0,1-.343,1.616,3.3,3.3,0,0,1-.937,1.141,3.87,3.87,0,0,1-1.364.7,6.249,6.249,0,0,1-3.652-.1,5.121,5.121,0,0,1-1.721-1.071l1.742-1.917a2.477,2.477,0,0,0,.945.777,2.8,2.8,0,0,0,1.19.28,2.888,2.888,0,0,0,.6-.077,1.985,1.985,0,0,0,.553-.217,1.293,1.293,0,0,0,.392-.364.909.909,0,0,0,.147-.518.937.937,0,0,0-.385-.791,3.41,3.41,0,0,0-.966-.5c-.392-.133-.812-.273-1.259-.406a5.411,5.411,0,0,1-1.252-.553,2.993,2.993,0,0,1-.966-.91,2.548,2.548,0,0,1-.385-1.49,3.276,3.276,0,0,1,.35-1.567,3.431,3.431,0,0,1,.945-1.133,4.06,4.06,0,0,1,1.357-.7,5.464,5.464,0,0,1,1.581-.224,6.4,6.4,0,0,1,1.819.266,4.348,4.348,0,0,1,1.588.889Z" transform="translate(-70.332 -143.508)" fill="rgba(255,255,255,0.59)"/>
              <path id="Path_131" data-name="Path 131" d="M175.19,168.664a6.338,6.338,0,0,1,.441-2.414,5.374,5.374,0,0,1,1.253-1.847,5.6,5.6,0,0,1,1.9-1.169,7.265,7.265,0,0,1,4.807,0,5.6,5.6,0,0,1,1.9,1.169,5.354,5.354,0,0,1,1.245,1.847,6.7,6.7,0,0,1,0,4.835,5.425,5.425,0,0,1-1.245,1.847,5.6,5.6,0,0,1-1.9,1.168,7.262,7.262,0,0,1-4.807,0,5.594,5.594,0,0,1-1.9-1.168,5.436,5.436,0,0,1-1.253-1.847,6.372,6.372,0,0,1-.441-2.421Zm2.547,0a4.15,4.15,0,0,0,.238,1.434,3.343,3.343,0,0,0,.7,1.133,3.145,3.145,0,0,0,1.091.742,3.9,3.9,0,0,0,2.841,0,3.15,3.15,0,0,0,1.092-.742,3.343,3.343,0,0,0,.7-1.133,4.358,4.358,0,0,0,0-2.862,3.3,3.3,0,0,0-.7-1.14,3.152,3.152,0,0,0-1.092-.742,3.9,3.9,0,0,0-2.841,0,3.147,3.147,0,0,0-1.091.742,3.3,3.3,0,0,0-.7,1.14,4.113,4.113,0,0,0-.252,1.4Z" transform="translate(-74.807 -143.51)" fill="rgba(255,255,255,0.59)"/>
              <path id="Path_132" data-name="Path 132" d="M203.405,165.984a2.434,2.434,0,0,0-.889-.7,2.912,2.912,0,0,0-1.217-.238A3.051,3.051,0,0,0,199,166.061a3.394,3.394,0,0,0-.7,1.141,4.275,4.275,0,0,0,0,2.862,3.406,3.406,0,0,0,.7,1.126,2.91,2.91,0,0,0,2.225,1.014,2.735,2.735,0,0,0,1.329-.315,2.594,2.594,0,0,0,.959-.889l2.043,1.525a4.3,4.3,0,0,1-1.791,1.462,5.548,5.548,0,0,1-2.232.469,6.872,6.872,0,0,1-2.4-.413,5.379,5.379,0,0,1-1.9-1.169,5.247,5.247,0,0,1-1.252-1.84,6.793,6.793,0,0,1,0-4.842,5.33,5.33,0,0,1,3.149-3.009,6.706,6.706,0,0,1,2.4-.406,5.809,5.809,0,0,1,.986.084,4.912,4.912,0,0,1,1,.273,4.762,4.762,0,0,1,.952.5,3.889,3.889,0,0,1,.819.77Z" transform="translate(-80.919 -143.496)" fill="rgba(255,255,255,0.59)"/>
              <path id="Path_133" data-name="Path 133" d="M213.39,163.23h2.456v11.111H213.39Z" transform="translate(-86.279 -143.631)" fill="rgba(255,255,255,0.59)"/>
              <path id="Path_134" data-name="Path 134" d="M221.9,163.23h7.549v2.26h-5.094v2.1h4.814v2.26h-4.814v2.267h5.374v2.253H221.9Z" transform="translate(-88.835 -143.631)" fill="rgba(255,255,255,0.59)"/>
              <path id="Path_135" data-name="Path 135" d="M239.29,165.4h-3.17V163.23h8.788V165.4h-3.17v8.942H239.3Z" transform="translate(-93.105 -143.631)" fill="rgba(255,255,255,0.59)"/>
              <path id="Path_136" data-name="Path 136" d="M254.2,169.6,250,163.23h3.051l2.351,4.2,2.5-4.2h2.9l-4.2,6.374v4.737H254.2Z" transform="translate(-97.274 -143.631)" fill="rgba(255,255,255,0.59)"/>
            </g>
          </g>
        </g>
      </g>
      <g id="Group_2747" data-name="Group 2747" transform="translate(577.602 536.514)">
        <g transform="matrix(1, 0, 0, 1, -591.38, -664.06)" filter="url(#Ellipse_24)">
          <circle id="Ellipse_24-2" data-name="Ellipse 24" cx="19.279" cy="19.279" r="19.279" transform="translate(591.38 664.06)" fill="#f5d400"/>
        </g>
        <g transform="matrix(1, 0, 0, 1, -591.38, -664.06)" filter="url(#Ellipse_25)">
          <circle id="Ellipse_25-2" data-name="Ellipse 25" cx="19.279" cy="19.279" r="19.279" transform="translate(645.36 664.06)" fill="#fff"/>
        </g>
      </g>
    </g>
  </g>
</svg>
