<svg xmlns="http://www.w3.org/2000/svg" width="117" height="113" viewBox="0 0 117 113">
  <g id="Group_347" data-name="Group 347" transform="translate(-136 -145)">
    <circle id="Ellipse_75" data-name="Ellipse 75" cx="45" cy="45" r="45" transform="translate(151 154)" fill="#f4bd3b"/>
    <circle id="Ellipse_76" data-name="Ellipse 76" cx="8" cy="8" r="8" transform="translate(237 159)" fill="#f4bd3b"/>
    <circle id="Ellipse_77" data-name="Ellipse 77" cx="9" cy="9" r="9" transform="translate(140 152)" fill="#f4bd3b"/>
    <circle id="Ellipse_78" data-name="Ellipse 78" cx="3.5" cy="3.5" r="3.5" transform="translate(196 145)" fill="#f4bd3b"/>
    <circle id="Ellipse_80" data-name="Ellipse 80" cx="1.5" cy="1.5" r="1.5" transform="translate(246 207)" fill="#f4bd3b"/>
    <circle id="Ellipse_82" data-name="Ellipse 82" cx="2" cy="2" r="2" transform="translate(212 246)" fill="#f4bd3b"/>
    <circle id="Ellipse_81" data-name="Ellipse 81" cx="3.5" cy="3.5" r="3.5" transform="translate(234 231)" fill="#f4bd3b"/>
    <circle id="Ellipse_83" data-name="Ellipse 83" cx="4.5" cy="4.5" r="4.5" transform="translate(166 249)" fill="#f4bd3b"/>
    <circle id="Ellipse_84" data-name="Ellipse 84" cx="2" cy="2" r="2" transform="translate(136 190)" fill="#f4bd3b"/>
    <circle id="Ellipse_79" data-name="Ellipse 79" cx="3.5" cy="3.5" r="3.5" transform="translate(140 216)" fill="#f4bd3b"/>
    <g id="Group_349" data-name="Group 349" transform="translate(-1278.697 -577.797)">
      <g id="Group_348" data-name="Group 348" transform="translate(1472.468 766.388)">
        <ellipse id="Ellipse_85" data-name="Ellipse 85" cx="2.182" cy="2.292" rx="2.182" ry="2.292" transform="translate(0.271 19.776)" fill="#fff"/>
        <path id="Path_2926" data-name="Path 2926" d="M1673.9,886.375l-1.394-15.359a2.449,2.449,0,0,1,2.442-2.635h0a2.449,2.449,0,0,1,2.442,2.634l-1.406,15.36Z" transform="translate(-1672.495 -868.381)" fill="#fff"/>
      </g>
      <path id="Path_2927" data-name="Path 2927" d="M1497.5,790.174l-18.482-32.012a4.731,4.731,0,0,0-8.194,0l-18.482,32.012a4.731,4.731,0,0,0,4.1,7.1H1493.4A4.731,4.731,0,0,0,1497.5,790.174Zm-3.063,2.962a1.156,1.156,0,0,1-1.034.6h-36.964a1.194,1.194,0,0,1-1.034-1.791l18.482-32.011a1.194,1.194,0,0,1,2.067,0l18.482,32.012A1.156,1.156,0,0,1,1494.432,793.136Z" transform="translate(0 0)" fill="#fff"/>
    </g>
  </g>
</svg>
