<svg xmlns="http://www.w3.org/2000/svg" xmlns:xlink="http://www.w3.org/1999/xlink" width="285" height="285.001" viewBox="0 0 285 285.001">
  <defs>
    <linearGradient id="linear-gradient" x1="0.5" y1="0.901" x2="0.5" y2="-0.099" gradientUnits="objectBoundingBox">
      <stop offset="0" stop-color="#fefefd"/>
      <stop offset="1" stop-color="#ebf3ff"/>
    </linearGradient>
    <linearGradient id="linear-gradient-2" x1="0.5" y1="0.951" x2="0.5" y2="0.15" gradientUnits="objectBoundingBox">
      <stop offset="0" stop-color="#fefefd"/>
      <stop offset="0.84" stop-color="#ebf3ff"/>
    </linearGradient>
    <radialGradient id="radial-gradient" cx="0.5" cy="0.5" r="0.448" gradientUnits="objectBoundingBox">
      <stop offset="0" stop-color="#d0dff3"/>
      <stop offset="1" stop-color="#f3f7fc"/>
    </radialGradient>
    <linearGradient id="linear-gradient-3" y1="0.5" x2="1" y2="0.5" gradientUnits="objectBoundingBox">
      <stop offset="0" stop-color="#3b82f4"/>
      <stop offset="0.965" stop-color="#173db8"/>
      <stop offset="1" stop-color="#173db8"/>
    </linearGradient>
  </defs>
  <g id="warning" transform="translate(-44.999 -127)">
    <g id="Group_388" data-name="Group 388" transform="translate(9.564 99)">
      <path id="Path_3055" data-name="Path 3055" d="M320.435,170.5A142.5,142.5,0,1,1,177.935,28,142.5,142.5,0,0,1,320.435,170.5Z" fill="url(#linear-gradient)"/>
      <path id="Path_3056" data-name="Path 3056" d="M297.933,281.132c-34.551,18.489-85.277,34.018-135.43,36.17-28.54,1.224-57.8-1.847-84.687-7.6-23.906-27.3-39.49-64.315-41.969-105.5,27.226-6.116,55.544-6.228,70.3,4.461,8.8,6.38,11.145,15.424,23.513,18.42,19.832,4.805,28.931-14.784,55.18-15.788,29.5-1.129,43.236,22.651,63.063,15.788,12.288-4.253,10.363-14.549,22.334-19.735,12.761-5.529,33.19-1.734,48.882,6.192A180.4,180.4,0,0,1,297.933,281.132Z" transform="translate(0 -44.214)" fill="url(#linear-gradient-2)"/>
      <g id="Group_386" data-name="Group 386" transform="translate(78.534 88.121)">
        <path id="Path_3057" data-name="Path 3057" d="M135.15,133.342H89.376A10.842,10.842,0,0,1,78.534,122.5h0a10.844,10.844,0,0,1,10.842-10.842H135.15A10.842,10.842,0,0,1,145.991,122.5h0a10.84,10.84,0,0,1-10.841,10.841Z" transform="translate(-78.534 -98.737)" fill="#d8e2f4"/>
        <circle id="Ellipse_98" data-name="Ellipse 98" cx="16.426" cy="16.426" r="16.426" transform="translate(13.36)" fill="#d8e2f4"/>
      </g>
      <g id="Group_387" data-name="Group 387" transform="translate(213.594 53.727)">
        <path id="Path_3058" data-name="Path 3058" d="M330.056,100.973H271.642a13.834,13.834,0,0,1-13.834-13.834h0A13.83,13.83,0,0,1,271.642,73.3h58.414A13.834,13.834,0,0,1,343.89,87.139h0a13.834,13.834,0,0,1-13.834,13.834Z" transform="translate(-257.808 -53.727)" fill="#fff"/>
        <circle id="Ellipse_99" data-name="Ellipse 99" cx="20.962" cy="20.962" r="20.962" transform="translate(13.961 41.382) rotate(-80.783)" fill="#fff"/>
      </g>
      <path id="Path_3059" data-name="Path 3059" d="M284.556,316.619c0,4.845-47.736,8.773-106.621,8.773s-106.621-3.928-106.621-8.773,47.735-8.772,106.621-8.772S284.556,311.775,284.556,316.619Z" transform="translate(0 -44.214)" fill="url(#radial-gradient)"/>
    </g>
    <g id="Group_1915" data-name="Group 1915" transform="translate(-1237.13 -461.283)">
      <g id="Group_1911" data-name="Group 1911" transform="translate(1363.659 638.616)">
        <g id="Group_1904" data-name="Group 1904" transform="translate(7.803 4.054)">
          <path id="Path_3093" data-name="Path 3093" d="M1402.2,682.774s-2.82-2.382-3.029-2.23.114,1.506.114,1.506-1.905-1.429-2.725-.629,1.62,6.135,4.021,6.783Z" transform="translate(-1396.4 -664.327)" fill="#ffaa9d"/>
          <path id="Path_3094" data-name="Path 3094" d="M1606.576,677.091s2.82-2.382,3.03-2.229-.114,1.505-.114,1.505,1.906-1.429,2.725-.629-1.62,6.136-4.021,6.784Z" transform="translate(-1504.981 -661.391)" fill="#ffaa9d"/>
          <path id="Path_3095" data-name="Path 3095" d="M1504.072,679.572l-3.585-5.239c-6.251,3.585-15.074,3.768-25.828.828-7.871-2.153-13.369-4.5-22.171-4.5s-17.452,6.227-21.833,7.425c-10.754,2.941-19.577,2.757-25.828-.828l-3.584,5.239a48.393,48.393,0,0,0,36.354,9.047c-.535,7.277-1.735,18.406-1.366,20.122.868,4.029,31.092,4.212,32.556-.376.429-1.346-1.6-15.461-1.9-22.8A48.407,48.407,0,0,0,1504.072,679.572Z" transform="translate(-1398.901 -659.223)" fill="url(#linear-gradient-3)"/>
          <g id="Group_1903" data-name="Group 1903" transform="translate(50.512)">
            <path id="Path_3096" data-name="Path 3096" d="M1513.01,654l.068,4.537-.678-.022s-.543,3.755-3.194,3.162c-.762-.17-1.734-.815-2.014-.686-.333.153-.476,1.181-.551,1.478-.289,1.137-4.267-.012-3.622-1.176.612-1.106,1.525-2.616,1.332-3.036a4.6,4.6,0,0,1,2.79-6.309C1510.054,650.983,1512.977,652.449,1513.01,654Z" transform="translate(-1501.957 -649.398)" fill="#ffaa9d"/>
            <path id="Path_3097" data-name="Path 3097" d="M1503.019,668.368c.612-1.106,1.525-2.616,1.332-3.036,0,0,1.536,2.362,2.952,2.719l.008,0a.267.267,0,0,0-.119.013c-.333.153-.476,1.181-.551,1.478C1506.352,670.681,1502.374,669.533,1503.019,668.368Z" transform="translate(-1501.957 -656.472)" fill="#ff9f91"/>
            <path id="Path_3098" data-name="Path 3098" d="M1505.814,653.831c-1.709-.292-.647,3.516-2.53,3.388s-3.2-4.242-1.813-7.416,4.01-3,6.514-2.564,5.574,1.566,5.573,3.46c0,4.557-5.4.734-5.754,2.1-.276,1.06-.7,4.125.4,4.2s2.217-.836,3.085-.6c.5.134,1.875,6.111-1.719,6.311-3.555.2-4.455-2.941-3.706-5.5C1506.576,654.764,1506.648,653.974,1505.814,653.831Z" transform="translate(-1500.897 -647.003)" fill="#14336a"/>
          </g>
        </g>
        <g id="Group_1907" data-name="Group 1907" transform="translate(0 5.409)">
          <path id="Path_3099" data-name="Path 3099" d="M1407.457,730.244c-6.006,0-12.877-3.273-18.383-8.755-5.522-5.5-8.818-12.39-8.817-18.435,0-3.709,2.99-6.092,5.88-8.4s5.591-4.457,5.733-7.813a7.615,7.615,0,0,0-1.568-4.62,8.334,8.334,0,0,1-1.7-5.445c.342-4.2,4.1-8.063,11.182-11.492a.725.725,0,0,1,.632,1.305c-6.584,3.189-10.072,6.656-10.369,10.3-.155,1.91.606,3.141,1.487,4.565a9.014,9.014,0,0,1,1.783,5.444c-.169,4.017-3.274,6.493-6.277,8.886-2.743,2.187-5.333,4.252-5.334,7.263,0,5.668,3.136,12.175,8.391,17.407,5.24,5.218,11.729,8.333,17.359,8.333a.725.725,0,0,1,0,1.45Z" transform="translate(-1380.257 -657.766)" fill="#4fc7a0"/>
          <g id="Group_1906" data-name="Group 1906" transform="translate(17.52)">
            <path id="Path_3100" data-name="Path 3100" d="M1422.738,664.943a5.1,5.1,0,1,1,3.842-6.107A5.1,5.1,0,0,1,1422.738,664.943Z" transform="translate(-1416.502 -652.42)" fill="#3fb790"/>
            <path id="Path_3101" data-name="Path 3101" d="M1436.98,662.446c-1.086.248-2.611-2.378-3.405-5.864s-.556-6.513.53-6.76,2.611,2.378,3.4,5.864S1438.066,662.2,1436.98,662.446Z" transform="translate(-1425.08 -649.806)" fill="#4fc7a0"/>
            <path id="Path_3102" data-name="Path 3102" d="M1425.92,657.962l-.22-.966a6,6,0,0,1,4.5-7.157h0l2.875,12.625h0A6,6,0,0,1,1425.92,657.962Z" transform="translate(-1421.177 -649.823)" fill="#4fc7a0"/>
            <path id="Path_3103" data-name="Path 3103" d="M1437.219,662.539c-.865.2-2.078-1.892-2.709-4.666s-.443-5.182.422-5.379,2.078,1.892,2.709,4.666S1438.083,662.342,1437.219,662.539Z" transform="translate(-1425.612 -651.188)" fill="#3fb790"/>
            <g id="Group_1905" data-name="Group 1905" transform="translate(9.68 3.187)">
              <path id="Path_3104" data-name="Path 3104" d="M1437.053,658.113c-.147.033-.354-.322-.462-.8s-.075-.883.072-.916.354.322.461.8S1437.2,658.08,1437.053,658.113Z" transform="translate(-1436.527 -656.4)" fill="#14336a"/>
              <path id="Path_3105" data-name="Path 3105" d="M1439.19,667.5c-.147.033-.354-.322-.462-.795s-.076-.883.072-.917.354.322.462.795S1439.337,667.466,1439.19,667.5Z" transform="translate(-1437.632 -661.249)" fill="#14336a"/>
            </g>
          </g>
        </g>
        <g id="Group_1910" data-name="Group 1910" transform="translate(92.234)">
          <path id="Path_3106" data-name="Path 3106" d="M1571.792,726.228a.725.725,0,0,1-.041-1.449c35.429-2.03,41.439-23.028,42.438-29.416,1.4-8.948-1.777-17.6-7.23-19.7-1.672-.644-3.134.166-4.826,1.105-1.588.881-3.229,1.791-5.164,1.445-3.937-.706-6.911-5.8-9.094-15.586a.725.725,0,0,1,1.415-.316c2.013,9.021,4.683,13.891,7.935,14.474,1.424.256,2.776-.493,4.2-1.285,1.755-.974,3.742-2.078,6.051-1.19,6.166,2.372,9.666,11.519,8.141,21.276-1.041,6.659-7.273,28.548-43.787,30.64Z" transform="translate(-1571.068 -650.564)" fill="#4fc7a0"/>
          <g id="Group_1909" data-name="Group 1909" transform="translate(9.159)">
            <path id="Path_3107" data-name="Path 3107" d="M1604.069,653.885a5.35,5.35,0,0,1-10.241-2.841c.063-.4,8.944-3.186,9.5-2.474A5.347,5.347,0,0,1,1604.069,653.885Z" transform="translate(-1591.952 -643.698)" fill="#3fb790"/>
            <g id="Group_1908" data-name="Group 1908" transform="translate(1.983)">
              <path id="Path_3108" data-name="Path 3108" d="M1606.069,638.64h0a.691.691,0,0,1,.845.486l1.391,5.157a.691.691,0,0,1-.486.845h0a.691.691,0,0,1-.845-.486l-1.39-5.158A.691.691,0,0,1,1606.069,638.64Z" transform="translate(-1600.029 -638.616)" fill="#14336a"/>
              <path id="Path_3109" data-name="Path 3109" d="M1594.626,641.725h0a.692.692,0,0,1,.845.486l1.39,5.158a.69.69,0,0,1-.486.844h0a.691.691,0,0,1-.845-.486l-1.391-5.158A.691.691,0,0,1,1594.626,641.725Z" transform="translate(-1594.117 -640.21)" fill="#14336a"/>
            </g>
            <path id="Path_3110" data-name="Path 3110" d="M1599.887,650.059l-4.764,1.239a4.173,4.173,0,0,1-5.074-2.979h0a1.05,1.05,0,0,1,.749-1.276l10.792-2.807a1.049,1.049,0,0,1,1.276.749h0A4.173,4.173,0,0,1,1599.887,650.059Z" transform="translate(-1590.016 -641.502)" fill="#4fc7a0"/>
          </g>
        </g>
      </g>
      <g id="Group_1912" data-name="Group 1912" transform="translate(1381.121 683.558)">
        <path id="Rectangle_1579" data-name="Rectangle 1579" d="M28.408,0H53.542A28.408,28.408,0,0,1,81.95,28.408V135.16a0,0,0,0,1,0,0H0a0,0,0,0,1,0,0V28.408A28.408,28.408,0,0,1,28.408,0Z" transform="translate(1.45 1.45)" fill="#fff"/>
        <path id="Path_3111" data-name="Path 3111" d="M1499.782,865.337a1.45,1.45,0,0,1-1.45-1.45V746.773a12.3,12.3,0,0,0-12.282-12.282h-54.486a12.3,12.3,0,0,0-12.282,12.282v112a1.45,1.45,0,1,1-2.9,0v-112a15.2,15.2,0,0,1,15.182-15.182h54.486a15.2,15.2,0,0,1,15.182,15.182V863.887A1.45,1.45,0,0,1,1499.782,865.337Z" transform="translate(-1416.382 -731.591)" fill="#e0e9f3"/>
        <path id="Path_3112" data-name="Path 3112" d="M1443.083,754.854a2.685,2.685,0,1,1-2.685-2.685A2.685,2.685,0,0,1,1443.083,754.854Z" transform="translate(-1427.402 -742.222)" fill="#e0e9f3"/>
      </g>
      <g id="Group_1913" data-name="Group 1913" transform="translate(1390.682 720.715)">
        <path id="Path_3113" data-name="Path 3113" d="M1437.832,830.335H1539.5a1.67,1.67,0,0,0,1.67-1.67V810.129a1.67,1.67,0,0,0-1.67-1.671h-101.67a1.67,1.67,0,0,0-1.67,1.671v18.537a1.67,1.67,0,0,0,1.67,1.67Z" transform="translate(-1436.162 -808.458)" fill="#fff"/>
        <path id="Path_3114" data-name="Path 3114" d="M1616.954,830.521h11.584a.954.954,0,0,0,.954-.954V817.983a.955.955,0,0,0-.954-.954h-11.584a.954.954,0,0,0-.954.954v11.584a.954.954,0,0,0,.954.954Z" transform="translate(-1529.07 -812.886)" fill="#d0daed"/>
        <path id="Path_3115" data-name="Path 3115" d="M1462.348,820.081h64.891a1.526,1.526,0,0,0,1.526-1.526h0a1.525,1.525,0,0,0-1.526-1.526h-64.891a1.526,1.526,0,0,0-1.526,1.526h0a1.526,1.526,0,0,0,1.526,1.526Z" transform="translate(-1448.902 -812.886)" fill="#d0daed"/>
        <path id="Path_3116" data-name="Path 3116" d="M1462.348,831.846h64.891a1.525,1.525,0,0,0,1.526-1.526h0a1.525,1.525,0,0,0-1.526-1.526h-64.891a1.526,1.526,0,0,0-1.526,1.526h0a1.526,1.526,0,0,0,1.526,1.526Z" transform="translate(-1448.902 -818.964)" fill="#d0daed"/>
      </g>
      <g id="Group_1914" data-name="Group 1914" transform="translate(1348.128 751.938)">
        <path id="Path_3117" data-name="Path 3117" d="M1451.469,894.929H1349.8a1.67,1.67,0,0,1-1.67-1.67V874.722a1.67,1.67,0,0,1,1.67-1.67h101.67a1.67,1.67,0,0,1,1.67,1.67v18.537a1.669,1.669,0,0,1-1.67,1.67Z" transform="translate(-1348.128 -873.052)" fill="#fff"/>
        <path id="Path_3118" data-name="Path 3118" d="M1370.157,895.115h-11.584a.954.954,0,0,1-.954-.954V882.577a.954.954,0,0,1,.954-.954h11.584a.954.954,0,0,1,.954.954v11.584a.954.954,0,0,1-.954.954Z" transform="translate(-1353.031 -877.48)" fill="#d0daed"/>
        <path id="Path_3119" data-name="Path 3119" d="M1466.569,884.675h-64.891a1.525,1.525,0,0,1-1.526-1.526h0a1.526,1.526,0,0,1,1.526-1.526h64.891a1.527,1.527,0,0,1,1.526,1.526h0a1.526,1.526,0,0,1-1.526,1.526Z" transform="translate(-1375.005 -877.48)" fill="#d0daed"/>
        <path id="Path_3120" data-name="Path 3120" d="M1445.832,896.44h-44.154a1.526,1.526,0,0,1-1.526-1.526h0a1.526,1.526,0,0,1,1.526-1.526h44.154a1.526,1.526,0,0,1,1.526,1.526h0a1.526,1.526,0,0,1-1.526,1.526Z" transform="translate(-1375.005 -883.558)" fill="#d0daed"/>
      </g>
    </g>
  </g>
</svg>
