<svg xmlns="http://www.w3.org/2000/svg" width="17.74" height="16" viewBox="0 0 17.74 16">
  <path id="visibility_off_FILL0_wght300_GRAD0_opsz48" d="M14.941,14.471l-.743-.743a2.069,2.069,0,0,0-.594-2.377,2.192,2.192,0,0,0-2.292-.509l-.743-.743a2.47,2.47,0,0,1,.647-.255,3.342,3.342,0,0,1,3.1.881,3.192,3.192,0,0,1,.966,2.345,2.974,2.974,0,0,1-.1.764A2.912,2.912,0,0,1,14.941,14.471Zm2.716,2.674L17,16.509a9.723,9.723,0,0,0,1.708-1.6,6.86,6.86,0,0,0,1.114-1.836,8.5,8.5,0,0,0-3.141-3.639,8.221,8.221,0,0,0-4.562-1.347,9.414,9.414,0,0,0-1.645.149,7.672,7.672,0,0,0-1.39.361l-.743-.743a7.89,7.89,0,0,1,1.719-.52,10.26,10.26,0,0,1,1.995-.2,9.249,9.249,0,0,1,5.252,1.613,9.436,9.436,0,0,1,3.533,4.329,9.966,9.966,0,0,1-1.305,2.239A9.633,9.633,0,0,1,17.657,17.145Zm1.273,4.6-3.438-3.4a7.229,7.229,0,0,1-1.581.477,10.11,10.11,0,0,1-1.942.18A9.336,9.336,0,0,1,6.644,17.4,9.591,9.591,0,0,1,3.1,13.071a9.2,9.2,0,0,1,1.241-2.143A10.9,10.9,0,0,1,6.2,9.039L3.588,6.45l.679-.7,15.3,15.279ZM6.856,9.718a8.043,8.043,0,0,0-1.6,1.507A7.1,7.1,0,0,0,4.1,13.071,8.546,8.546,0,0,0,7.3,16.71a8.756,8.756,0,0,0,4.8,1.347,9.6,9.6,0,0,0,1.56-.127,4.225,4.225,0,0,0,1.114-.3l-1.507-1.507a2.83,2.83,0,0,1-.6.18,3.531,3.531,0,0,1-.69.074,3.279,3.279,0,0,1-3.31-3.31,3.764,3.764,0,0,1,.255-1.294ZM13.052,12.71ZM10.8,13.835Z" transform="translate(-3.1 -5.75)" fill="#166adb"/>
</svg>
