<svg xmlns="http://www.w3.org/2000/svg" width="40" height="40" viewBox="0 0 40 40">
  <g id="Group_303" data-name="Group 303" transform="translate(-15 -28)">
    <rect id="image_" data-name="image " width="40" height="40" rx="12" transform="translate(15 28)" fill="#ebf2fe"/>
    <g id="Group_302" data-name="Group 302" transform="translate(-2663.867 -1178.905)">
      <g id="Group_297" data-name="Group 297" transform="translate(2685.867 1210.905)">
        <g id="Group_295" data-name="Group 295" transform="translate(0 0)">
          <path id="Path_2854" data-name="Path 2854" d="M2708.692,1242.9h-19.526a3.3,3.3,0,0,1-3.3-3.3v-25.4a3.3,3.3,0,0,1,3.3-3.3h15.773a.475.475,0,0,1,0,.95h-15.773a2.353,2.353,0,0,0-2.351,2.35v25.4a2.353,2.353,0,0,0,2.351,2.351h19.526a2.353,2.353,0,0,0,2.351-2.351v-21.647a.475.475,0,1,1,.949,0V1239.6A3.3,3.3,0,0,1,2708.692,1242.9Z" transform="translate(-2685.867 -1210.905)" fill="#3b82f4"/>
        </g>
        <g id="Group_296" data-name="Group 296" transform="translate(18.442 0)">
          <path id="Path_2855" data-name="Path 2855" d="M2966.842,1218.593h-6.714a.484.484,0,0,1-.484-.485v-6.714a.484.484,0,0,1,.827-.343l6.714,6.714a.485.485,0,0,1-.342.828Zm-6.23-.97h5.06l-5.06-5.059Z" transform="translate(-2959.643 -1210.91)" fill="#3b82f4"/>
        </g>
      </g>
      <g id="Group_301" data-name="Group 301" transform="translate(2689.767 1223.633)">
        <g id="Group_298" data-name="Group 298" transform="translate(0)">
          <path id="Path_2856" data-name="Path 2856" d="M2748.69,1404.381h-1.279v2.238a1.15,1.15,0,0,1-.2.728.636.636,0,0,1-1.006,0,1.147,1.147,0,0,1-.193-.72v-6.093a1.092,1.092,0,0,1,.211-.755.883.883,0,0,1,.673-.226h1.791a4.114,4.114,0,0,1,1.222.14,1.76,1.76,0,0,1,.731.447,2.047,2.047,0,0,1,.468.766,3.053,3.053,0,0,1,.16,1.019,2.424,2.424,0,0,1-.649,1.831A2.691,2.691,0,0,1,2748.69,1404.381Zm-.339-3.624h-.94v2.416h.94a2.473,2.473,0,0,0,.825-.119.969.969,0,0,0,.506-.388,1.29,1.29,0,0,0,.174-.707,1.308,1.308,0,0,0-.268-.852A1.624,1.624,0,0,0,2748.351,1400.757Z" transform="translate(-2746.015 -1399.555)" fill="#3b82f4"/>
        </g>
        <g id="Group_299" data-name="Group 299" transform="translate(6.431)">
          <path id="Path_2857" data-name="Path 2857" d="M2839.62,1399.555h1.819a4.308,4.308,0,0,1,1.218.151,2.164,2.164,0,0,1,.921.566,4.321,4.321,0,0,1,1.077,3.214,7.234,7.234,0,0,1-.108,1.3,4.224,4.224,0,0,1-.334,1.06,3.272,3.272,0,0,1-.578.844,2.39,2.39,0,0,1-.606.458,2.489,2.489,0,0,1-.708.243,4.7,4.7,0,0,1-.853.07h-1.819a1.017,1.017,0,0,1-.574-.132.61.61,0,0,1-.251-.372,2.7,2.7,0,0,1-.059-.623v-5.8a1.13,1.13,0,0,1,.2-.75A.825.825,0,0,1,2839.62,1399.555Zm.541,1.267v5.365h1.058a5.351,5.351,0,0,0,.546-.022,1.527,1.527,0,0,0,.409-.108,1.094,1.094,0,0,0,.366-.243,3.186,3.186,0,0,0,.7-2.34,3.879,3.879,0,0,0-.308-1.752,1.437,1.437,0,0,0-.759-.741,3.3,3.3,0,0,0-1.091-.159Z" transform="translate(-2838.765 -1399.555)" fill="#3b82f4"/>
        </g>
        <g id="Group_300" data-name="Group 300" transform="translate(13.521)">
          <path id="Path_2858" data-name="Path 2858" d="M2945.153,1400.79h-2.75v2.022h2.3a.631.631,0,0,1,.477.164.608.608,0,0,1,.157.439.6.6,0,0,1-.159.437.64.64,0,0,1-.475.162h-2.3v2.6a1.155,1.155,0,0,1-.195.736.645.645,0,0,1-1.006,0,1.157,1.157,0,0,1-.195-.733v-6.082a1.51,1.51,0,0,1,.089-.563.6.6,0,0,1,.28-.318,1.043,1.043,0,0,1,.487-.1h3.291a.657.657,0,0,1,.5.17.618.618,0,0,1,.162.445.625.625,0,0,1-.162.45A.656.656,0,0,1,2945.153,1400.79Z" transform="translate(-2941.006 -1399.555)" fill="#3b82f4"/>
        </g>
      </g>
    </g>
  </g>
</svg>
