<svg xmlns="http://www.w3.org/2000/svg" width="40" height="40" viewBox="0 0 40 40">
  <g id="type_zip" transform="translate(-15 -28)">
    <rect id="image_" data-name="image " width="40" height="40" rx="12" transform="translate(15 28)" fill="#ebf2fe"/>
    <g id="Group_302" data-name="Group 302" transform="translate(-2663.867 -1178.905)">
      <g id="Group_297" data-name="Group 297" transform="translate(2685.867 1210.905)">
        <g id="Group_295" data-name="Group 295" transform="translate(0 0)">
          <path id="Path_2854" data-name="Path 2854" d="M2708.692,1242.9h-19.526a3.3,3.3,0,0,1-3.3-3.3v-25.4a3.3,3.3,0,0,1,3.3-3.3h15.773a.475.475,0,0,1,0,.95h-15.773a2.353,2.353,0,0,0-2.351,2.35v25.4a2.353,2.353,0,0,0,2.351,2.351h19.526a2.353,2.353,0,0,0,2.351-2.351v-21.647a.475.475,0,1,1,.949,0V1239.6A3.3,3.3,0,0,1,2708.692,1242.9Z" transform="translate(-2685.867 -1210.905)" fill="#3b82f4"/>
        </g>
        <g id="Group_296" data-name="Group 296" transform="translate(18.442 0)">
          <path id="Path_2855" data-name="Path 2855" d="M2966.842,1218.593h-6.714a.484.484,0,0,1-.484-.485v-6.714a.484.484,0,0,1,.827-.343l6.714,6.714a.485.485,0,0,1-.342.828Zm-6.23-.97h5.06l-5.06-5.059Z" transform="translate(-2959.643 -1210.91)" fill="#3b82f4"/>
        </g>
      </g>
      <g id="Group_1964" data-name="Group 1964" transform="translate(2491.677 1155.136)">
        <g id="Group_1956" data-name="Group 1956" transform="translate(198.023 58.749)">
          <path id="Path_3177" data-name="Path 3177" d="M203.4,62.006h-4.225a.561.561,0,0,1,0-1.122H203.4a.561.561,0,0,1,0,1.122Z" transform="translate(-198.619 -60.884)" fill="#3b82f4"/>
        </g>
        <g id="Group_1957" data-name="Group 1957" transform="translate(198.023 61.125)">
          <path id="Path_3178" data-name="Path 3178" d="M203.4,66.084h-4.225a.561.561,0,0,1,0-1.122H203.4a.561.561,0,0,1,0,1.122Z" transform="translate(-198.619 -64.962)" fill="#3b82f4"/>
        </g>
        <g id="Group_1958" data-name="Group 1958" transform="translate(200.135 55.769)">
          <path id="Path_3179" data-name="Path 3179" d="M202.805,72.221a.56.56,0,0,1-.56-.561V56.329a.561.561,0,0,1,1.121,0V71.66A.561.561,0,0,1,202.805,72.221Z" transform="translate(-202.245 -55.769)" fill="#3b82f4"/>
        </g>
        <g id="Group_1959" data-name="Group 1959" transform="translate(198.023 63.501)">
          <path id="Path_3180" data-name="Path 3180" d="M203.4,70.161h-4.225a.561.561,0,0,1,0-1.121H203.4a.561.561,0,0,1,0,1.121Z" transform="translate(-198.619 -69.04)" fill="#3b82f4"/>
        </g>
        <g id="Group_1960" data-name="Group 1960" transform="translate(198.023 65.876)">
          <path id="Path_3181" data-name="Path 3181" d="M203.4,74.238h-4.225a.561.561,0,0,1,0-1.121H203.4a.561.561,0,0,1,0,1.121Z" transform="translate(-198.619 -73.117)" fill="#3b82f4"/>
        </g>
        <g id="Group_1961" data-name="Group 1961" transform="translate(198.023 68.251)">
          <path id="Path_3182" data-name="Path 3182" d="M203.4,78.316h-4.225a.561.561,0,0,1,0-1.122H203.4a.561.561,0,0,1,0,1.122Z" transform="translate(-198.619 -77.194)" fill="#3b82f4"/>
        </g>
        <g id="Group_1962" data-name="Group 1962" transform="translate(197.19 71.1)">
          <path id="Path_3183" data-name="Path 3183" d="M200.7,91.795a3.676,3.676,0,0,1-2.7-1.212,3.016,3.016,0,0,1-.784-2.37l.654-5.633a.56.56,0,0,1,.557-.5h4.54a.561.561,0,0,1,.558.5l.654,5.631a3.021,3.021,0,0,1-.785,2.374A3.661,3.661,0,0,1,200.7,91.795Zm-1.776-8.589-.6,5.135a1.912,1.912,0,0,0,.507,1.5,2.487,2.487,0,0,0,3.719,0,1.915,1.915,0,0,0,.507-1.5l-.6-5.134Z" transform="translate(-197.19 -82.084)" fill="#3b82f4"/>
        </g>
        <g id="Group_1963" data-name="Group 1963" transform="translate(198.782 75.543)">
          <path id="Path_3184" data-name="Path 3184" d="M201.836,93.174a2.013,2.013,0,0,1-1.516-.7,1.585,1.585,0,0,1-.376-1.3l.163-1a.561.561,0,0,1,.553-.471H203a.562.562,0,0,1,.554.471l.163,1a1.587,1.587,0,0,1-.377,1.3A2,2,0,0,1,201.836,93.174Zm-.7-2.343-.087.531a.479.479,0,0,0,.125.387.9.9,0,0,0,.661.3.885.885,0,0,0,.649-.3.489.489,0,0,0,.126-.39l-.087-.531Z" transform="translate(-199.923 -89.71)" fill="#3b82f4"/>
        </g>
      </g>
    </g>
  </g>
</svg>
