<svg xmlns="http://www.w3.org/2000/svg" width="40" height="40" viewBox="0 0 40 40">
  <g id="type_image" transform="translate(-15 -28)">
    <rect id="image_" data-name="image " width="40" height="40" rx="12" transform="translate(15 28)" fill="#ebf2fe"/>
    <g id="image" transform="translate(22 36)">
      <path id="Path_2581" data-name="Path 2581" d="M6.8,159.879A4.076,4.076,0,0,1,2.947,157.1l-.038-.125a3.973,3.973,0,0,1-.188-1.18v-7.422L.08,157.19a2.472,2.472,0,0,0,1.733,3L18.645,164.7a2.5,2.5,0,0,0,.627.081A2.427,2.427,0,0,0,21.625,163l.981-3.119Zm0,0" transform="translate(0 -140.829)" fill="#3b82f4"/>
      <path id="Path_2582" data-name="Path 2582" d="M151.5,68.846a2.177,2.177,0,1,0-2.177-2.177A2.179,2.179,0,0,0,151.5,68.846Zm0,0" transform="translate(-141.701 -61.226)" fill="#3b82f4"/>
      <path id="Path_2583" data-name="Path 2583" d="M104.37.492H88.041A2.725,2.725,0,0,0,85.32,3.214V15.188a2.725,2.725,0,0,0,2.721,2.722H104.37a2.725,2.725,0,0,0,2.722-2.722V3.214A2.725,2.725,0,0,0,104.37.492ZM88.041,2.669H104.37a.544.544,0,0,1,.544.544v7.728l-3.439-4.013a1.95,1.95,0,0,0-1.46-.669,1.9,1.9,0,0,0-1.454.687L94.518,11.8,93.2,10.485a1.911,1.911,0,0,0-2.7,0l-3,3V3.214A.544.544,0,0,1,88.041,2.669Zm0,0" transform="translate(-80.966 -0.492)" fill="#3b82f4"/>
    </g>
  </g>
</svg>
