<svg xmlns="http://www.w3.org/2000/svg" xmlns:xlink="http://www.w3.org/1999/xlink" width="285" height="285.001" viewBox="0 0 285 285.001">
  <defs>
    <linearGradient id="linear-gradient" x1="0.5" y1="0.901" x2="0.5" y2="-0.099" gradientUnits="objectBoundingBox">
      <stop offset="0" stop-color="#fefefd"/>
      <stop offset="1" stop-color="#ebf3ff"/>
    </linearGradient>
    <linearGradient id="linear-gradient-2" x1="0.5" y1="0.951" x2="0.5" y2="0.15" gradientUnits="objectBoundingBox">
      <stop offset="0" stop-color="#fefefd"/>
      <stop offset="0.84" stop-color="#ebf3ff"/>
    </linearGradient>
    <radialGradient id="radial-gradient" cx="0.5" cy="0.5" r="0.448" gradientUnits="objectBoundingBox">
      <stop offset="0" stop-color="#d0dff3"/>
      <stop offset="1" stop-color="#f3f7fc"/>
    </radialGradient>
  </defs>
  <g id="warning" transform="translate(-44.999 -127)">
    <g id="Group_388" data-name="Group 388" transform="translate(9.564 99)">
      <path id="Path_3055" data-name="Path 3055" d="M320.435,170.5A142.5,142.5,0,1,1,177.935,28,142.5,142.5,0,0,1,320.435,170.5Z" fill="url(#linear-gradient)"/>
      <path id="Path_3056" data-name="Path 3056" d="M297.933,281.132c-34.551,18.489-85.277,34.018-135.43,36.17-28.54,1.224-57.8-1.847-84.687-7.6-23.906-27.3-39.49-64.315-41.969-105.5,27.226-6.116,55.544-6.228,70.3,4.461,8.8,6.38,11.145,15.424,23.513,18.42,19.832,4.805,28.931-14.784,55.18-15.788,29.5-1.129,43.236,22.651,63.063,15.788,12.288-4.253,10.363-14.549,22.334-19.735,12.761-5.529,33.19-1.734,48.882,6.192A180.4,180.4,0,0,1,297.933,281.132Z" transform="translate(0 -44.214)" fill="url(#linear-gradient-2)"/>
      <g id="Group_386" data-name="Group 386" transform="translate(78.534 88.121)">
        <path id="Path_3057" data-name="Path 3057" d="M135.15,133.342H89.376A10.842,10.842,0,0,1,78.534,122.5h0a10.844,10.844,0,0,1,10.842-10.842H135.15A10.842,10.842,0,0,1,145.991,122.5h0a10.84,10.84,0,0,1-10.841,10.841Z" transform="translate(-78.534 -98.737)" fill="#d8e2f4"/>
        <circle id="Ellipse_98" data-name="Ellipse 98" cx="16.426" cy="16.426" r="16.426" transform="translate(13.36)" fill="#d8e2f4"/>
      </g>
      <g id="Group_387" data-name="Group 387" transform="translate(213.594 53.727)">
        <path id="Path_3058" data-name="Path 3058" d="M330.056,100.973H271.642a13.834,13.834,0,0,1-13.834-13.834h0A13.83,13.83,0,0,1,271.642,73.3h58.414A13.834,13.834,0,0,1,343.89,87.139h0a13.834,13.834,0,0,1-13.834,13.834Z" transform="translate(-257.808 -53.727)" fill="#fff"/>
        <circle id="Ellipse_99" data-name="Ellipse 99" cx="20.962" cy="20.962" r="20.962" transform="translate(13.961 41.382) rotate(-80.783)" fill="#fff"/>
      </g>
      <path id="Path_3059" data-name="Path 3059" d="M284.556,316.619c0,4.845-47.736,8.773-106.621,8.773s-106.621-3.928-106.621-8.773,47.735-8.772,106.621-8.772S284.556,311.775,284.556,316.619Z" transform="translate(0 -44.214)" fill="url(#radial-gradient)"/>
    </g>
    <g id="Group_345" data-name="Group 345" transform="translate(119 210)">
      <path id="Path_2925" data-name="Path 2925" d="M168.056,519.721c0,1.163-1.28,2.1-2.858,2.1s-2.869-.942-2.869-2.1l-4.595-55.487c0-3.026,3.346-5.469,7.464-5.469s7.453,2.443,7.453,5.469l-4.595,55.487ZM165.2,536.15a4.3,4.3,0,1,1,4.3-4.3,4.3,4.3,0,0,1-4.3,4.3Zm68.454,7.839-2.487,1.428,2.477-1.428L167.771,430.065a2.884,2.884,0,0,0-1.143-1.227,2.922,2.922,0,0,0-1.43-.381,2.867,2.867,0,0,0-2.488,1.439l2.488,1.428-2.478-1.417L96.88,543.756a2.928,2.928,0,0,0-.529,1.661,2.862,2.862,0,0,0,2.87,2.857H231.229a2.662,2.662,0,0,0,1.366-.381,2.853,2.853,0,0,0,1.058-3.9Z" transform="translate(-96.351 -428.456)" fill="#3b82f4" fill-rule="evenodd"/>
    </g>
  </g>
</svg>
